# xmcd
#
# Track frame offsets: 
#        150
#        16567
#        34683
#        50801
#        64722
#        75890
#        93288
#        120200
#        133770
#        143879
#        168559
#        183946
#        197882
#
# Disc length: 2984 seconds
#
# Revision: 2
# Processed by: cddbd v1.5.1PL0 Copyright (c) Steve Scherf et al.
# Submitted via: ExactAudioCopy v0.90b4
#
DISCID=a10ba60d
DTITLE=Boyd Small - This Time No Lies
DYEAR=2001
DGENRE=Blues
TTITLE0=This Time No Lies
TTITLE1=Bad Little Girl
TTITLE2=Can You Help
TTITLE3=That's Just Fine
TTITLE4=Good News
TTITLE5=110 Lbs
TTITLE6=Burnside Bum
TTITLE7=CoffeeTime
TTITLE8=My Only Rule
TTITLE9=I Can't Forget
TTITLE10=I Am The Devil
TTITLE11=34th and Bel
TTITLE12=Keep The Party Going
EXTD=\nYEAR: 2001  ID3G:   0
EXTT0=
EXTT1=
EXTT2=
EXTT3=
EXTT4=
EXTT5=
EXTT6=
EXTT7=
EXTT8=
EXTT9=
EXTT10=
EXTT11=
EXTT12=
PLAYORDER=
